<?xml version="1.0" encoding="UTF-8" standalone="no"?>
<!-- Created with Inkscape (http://www.inkscape.org/) -->

<svg
   width="512"
   height="512"
   viewBox="0 0 512 512"
   version="1.1"
   id="svg1"
   inkscape:version="1.3.2 (091e20ef0f, 2023-11-25)"
   sodipodi:docname="logoHLM.svg"
   xml:space="preserve"
   xmlns:inkscape="http://www.inkscape.org/namespaces/inkscape"
   xmlns:sodipodi="http://sodipodi.sourceforge.net/DTD/sodipodi-0.dtd"
   xmlns="http://www.w3.org/2000/svg"
   xmlns:svg="http://www.w3.org/2000/svg"><sodipodi:namedview
     id="namedview1"
     pagecolor="#ffffff"
     bordercolor="#000000"
     borderopacity="0.25"
     inkscape:showpageshadow="2"
     inkscape:pageopacity="0.0"
     inkscape:pagecheckerboard="0"
     inkscape:deskcolor="#d1d1d1"
     inkscape:document-units="px"
     inkscape:zoom="1.4142136"
     inkscape:cx="257.74041"
     inkscape:cy="290.62088"
     inkscape:window-width="1920"
     inkscape:window-height="1008"
     inkscape:window-x="0"
     inkscape:window-y="0"
     inkscape:window-maximized="1"
     inkscape:current-layer="layer1" /><defs
     id="defs1" /><g
     inkscape:label="Capa 1"
     inkscape:groupmode="layer"
     id="layer1"><g
       style="fill:#ffffff;stroke:#ffffff;stroke-opacity:1;fill-opacity:1"
       id="g1"
       transform="matrix(0.77145522,0,0,0.84684749,57.233834,155.74436)"><g
         id="g4"
         style="stroke:#ffffff;stroke-opacity:1;fill:#ffffff;fill-opacity:1">
	<g
   id="g3"
   style="stroke:#ffffff;stroke-opacity:1;fill:#ffffff;fill-opacity:1">
		<g
   id="g2"
   style="stroke:#ffffff;stroke-opacity:1;fill:#ffffff;fill-opacity:1">
			<path
   d="M 390.3523,370.8012 344.85,371.2 c -18.534,-17.818 -29.193,-42.47 -29.193,-68.267 0,-11.802 2.338,-23.339 6.511,-34.133 H 189.833 c 4.173,10.795 6.511,22.332 6.511,34.133 0,25.796 -10.658,50.449 -29.193,68.267 l -45.21045,0.3988 c -14.11334,0.12449 -12.46679,10.82133 -12.46679,24.93533 0,14.114 -1.20942,24.82347 12.90456,24.8024 l 267.24236,-0.3988 C 403.73466,420.91667 401.066,410.914 401.066,396.8 c 0,-14.114 3.39965,-26.12249 -10.7137,-25.9988 z"
   id="path1"
   sodipodi:nodetypes="scsccscssssss"
   style="stroke:#ffffff;stroke-opacity:1;fill:#ffffff;fill-opacity:1" />
			<path
   d="M 505.079,140.8 C 509.516,127.36 512,113.041 512,98.133 512,93.414 508.186,89.6 503.467,89.6 H 153.6 c -4.719,0 -8.533,3.814 -8.533,8.533 V 115.2 H 8.533 C 3.814,115.2 0,119.014 0,123.733 0,184.9 49.766,234.667 110.933,234.667 h 42.667 13.466 c 5.359,5.18 10.121,10.88 14.097,17.067 h 149.683 c 3.977,-6.187 8.73,-11.887 14.089,-17.067 h 30.532 c 53.845,0 100.369,-31.411 122.581,-76.8 H 162.133 V 140.8 Z m -360.012,8.533 V 217.6 l 2.75968,-80.15877 C 148.52426,117.17882 71.273765,131.407 17.451,132.267 h 127.616 z"
   id="path2"
   style="fill:#ffffff;fill-opacity:1;stroke:#ffffff;stroke-opacity:1"
   sodipodi:nodetypes="csssscssscccccsccccccsccc" />
		</g>
	</g>
</g></g><path
       style="fill:#ffffff;fill-opacity:1;stroke:#ffffff;stroke-opacity:1"
       d="m 203.6852,383.28443 -6.73191,-14.58234 c -2.5,-2.8125 117.20608,-2.67674 115.51858,0.19826 l -6.71184,14.46405 c -1.1875,1.5625 -101.76547,1.6436 -102.07483,-0.08 z"
       id="path3"
       sodipodi:nodetypes="ccccc" /><path
       style="fill:#ffffff;fill-opacity:1;stroke:#ffffff;stroke-opacity:1"
       d="m 449.06451,266.81871 -8.68951,25.80629 -260,2.25 -2.125,-29.375 z"
       id="path5"
       sodipodi:nodetypes="ccccc" /><g
       id="g5"
       transform="matrix(0.13617724,0,0,0.13617724,196.69594,72.71221)"
       style="stroke-width:67.2286;stroke-dasharray:none;stroke:#ffffff;stroke-opacity:1"><path
         fill="#f37b21"
         d="M 681.57,886.728 547.649,547.326 351.313,856.675 H 228.219 L 502.424,413.887 471.639,326.376 H 364.874 V 222.099 H 547.64 l 209.93,533.828 92.292,-30.065 30.758,103.41 z"
         id="path1-4"
         style="stroke-width:67.2286;stroke-dasharray:none;stroke:#ffffff;stroke-opacity:1;fill:#ffffff;fill-opacity:1" /><path
         fill="none"
         stroke="#f37b21"
         stroke-width="34"
         d="m 1091.84,554.411 c 0,296.849 -240.599,537.417 -537.415,537.417 C 257.605,1091.828 17,851.26 17,554.411 17,257.6 257.598,17 554.425,17 851.239,17 1091.84,257.6 1091.84,554.411 Z"
         id="path2-2"
         style="stroke-width:67.2286;stroke-dasharray:none;stroke:#ffffff;stroke-opacity:1" /></g></g></svg>
